<svg width="91" height="58" viewBox="0 0 91 58" fill="none" xmlns="http://www.w3.org/2000/svg">
<path d="M1.992 38V21.2H9.264C10.768 21.2 12.064 21.448 13.152 21.944C14.24 22.424 15.08 23.12 15.672 24.032C16.264 24.944 16.56 26.032 16.56 27.296C16.56 28.544 16.264 29.624 15.672 30.536C15.08 31.432 14.24 32.12 13.152 32.6C12.064 33.08 10.768 33.32 9.264 33.32H4.152L5.88 31.616V38H1.992ZM12.672 38L8.472 31.904H12.624L16.872 38H12.672ZM5.88 32.048L4.152 30.224H9.048C10.248 30.224 11.144 29.968 11.736 29.456C12.328 28.928 12.624 28.208 12.624 27.296C12.624 26.368 12.328 25.648 11.736 25.136C11.144 24.624 10.248 24.368 9.048 24.368H4.152L5.88 22.52V32.048ZM25.8844 38.192C24.4124 38.192 23.1164 37.904 21.9964 37.328C20.8924 36.752 20.0364 35.968 19.4284 34.976C18.8204 33.968 18.5164 32.824 18.5164 31.544C18.5164 30.248 18.8124 29.104 19.4044 28.112C20.0124 27.104 20.8364 26.32 21.8764 25.76C22.9164 25.184 24.0924 24.896 25.4044 24.896C26.6684 24.896 27.8044 25.168 28.8124 25.712C29.8364 26.24 30.6444 27.008 31.2364 28.016C31.8284 29.008 32.1244 30.2 32.1244 31.592C32.1244 31.736 32.1164 31.904 32.1004 32.096C32.0844 32.272 32.0684 32.44 32.0524 32.6H21.5644V30.416H30.0844L28.6444 31.064C28.6444 30.392 28.5084 29.808 28.2364 29.312C27.9644 28.816 27.5884 28.432 27.1084 28.16C26.6284 27.872 26.0684 27.728 25.4284 27.728C24.7884 27.728 24.2204 27.872 23.7244 28.16C23.2444 28.432 22.8684 28.824 22.5964 29.336C22.3244 29.832 22.1884 30.424 22.1884 31.112V31.688C22.1884 32.392 22.3404 33.016 22.6444 33.56C22.9644 34.088 23.4044 34.496 23.9644 34.784C24.5404 35.056 25.2124 35.192 25.9804 35.192C26.6684 35.192 27.2684 35.088 27.7804 34.88C28.3084 34.672 28.7884 34.36 29.2204 33.944L31.2124 36.104C30.6204 36.776 29.8764 37.296 28.9804 37.664C28.0844 38.016 27.0524 38.192 25.8844 38.192ZM34.7171 38V20.192H38.4611V38H34.7171ZM45.5398 38L40.1158 25.088H43.9798L48.4918 36.2H46.5718L51.2518 25.088H54.8518L49.4038 38H45.5398ZM56.4796 38V25.088H60.2236V38H56.4796ZM58.3516 23.288C57.6636 23.288 57.1036 23.088 56.6716 22.688C56.2396 22.288 56.0236 21.792 56.0236 21.2C56.0236 20.608 56.2396 20.112 56.6716 19.712C57.1036 19.312 57.6636 19.112 58.3516 19.112C59.0396 19.112 59.5996 19.304 60.0316 19.688C60.4636 20.056 60.6796 20.536 60.6796 21.128C60.6796 21.752 60.4636 22.272 60.0316 22.688C59.6156 23.088 59.0556 23.288 58.3516 23.288ZM68.1423 38.192C67.0383 38.192 65.9743 38.064 64.9503 37.808C63.9423 37.536 63.1423 37.2 62.5503 36.8L63.7983 34.112C64.3903 34.48 65.0863 34.784 65.8863 35.024C66.7023 35.248 67.5023 35.36 68.2863 35.36C69.1503 35.36 69.7583 35.256 70.1103 35.048C70.4783 34.84 70.6623 34.552 70.6623 34.184C70.6623 33.88 70.5183 33.656 70.2303 33.512C69.9583 33.352 69.5903 33.232 69.1263 33.152C68.6623 33.072 68.1503 32.992 67.5903 32.912C67.0463 32.832 66.4943 32.728 65.9343 32.6C65.3743 32.456 64.8623 32.248 64.3983 31.976C63.9343 31.704 63.5583 31.336 63.2703 30.872C62.9983 30.408 62.8623 29.808 62.8623 29.072C62.8623 28.256 63.0943 27.536 63.5583 26.912C64.0383 26.288 64.7263 25.8 65.6223 25.448C66.5183 25.08 67.5903 24.896 68.8383 24.896C69.7183 24.896 70.6143 24.992 71.5263 25.184C72.4383 25.376 73.1983 25.656 73.8063 26.024L72.5583 28.688C71.9343 28.32 71.3023 28.072 70.6623 27.944C70.0383 27.8 69.4303 27.728 68.8383 27.728C68.0063 27.728 67.3983 27.84 67.0143 28.064C66.6303 28.288 66.4383 28.576 66.4383 28.928C66.4383 29.248 66.5743 29.488 66.8463 29.648C67.1343 29.808 67.5103 29.936 67.9743 30.032C68.4383 30.128 68.9423 30.216 69.4863 30.296C70.0463 30.36 70.6063 30.464 71.1663 30.608C71.7263 30.752 72.2303 30.96 72.6783 31.232C73.1423 31.488 73.5183 31.848 73.8063 32.312C74.0943 32.76 74.2383 33.352 74.2383 34.088C74.2383 34.888 73.9983 35.6 73.5183 36.224C73.0383 36.832 72.3423 37.312 71.4303 37.664C70.5343 38.016 69.4383 38.192 68.1423 38.192ZM83.0563 38.192C81.5843 38.192 80.2883 37.904 79.1683 37.328C78.0643 36.752 77.2083 35.968 76.6003 34.976C75.9923 33.968 75.6883 32.824 75.6883 31.544C75.6883 30.248 75.9843 29.104 76.5763 28.112C77.1843 27.104 78.0083 26.32 79.0483 25.76C80.0883 25.184 81.2643 24.896 82.5763 24.896C83.8403 24.896 84.9763 25.168 85.9843 25.712C87.0083 26.24 87.8163 27.008 88.4083 28.016C89.0003 29.008 89.2963 30.2 89.2963 31.592C89.2963 31.736 89.2883 31.904 89.2723 32.096C89.2563 32.272 89.2403 32.44 89.2243 32.6H78.7363V30.416H87.2563L85.8163 31.064C85.8163 30.392 85.6803 29.808 85.4083 29.312C85.1363 28.816 84.7603 28.432 84.2803 28.16C83.8003 27.872 83.2403 27.728 82.6003 27.728C81.9603 27.728 81.3923 27.872 80.8963 28.16C80.4163 28.432 80.0403 28.824 79.7683 29.336C79.4963 29.832 79.3603 30.424 79.3603 31.112V31.688C79.3603 32.392 79.5123 33.016 79.8163 33.56C80.1363 34.088 80.5763 34.496 81.1363 34.784C81.7123 35.056 82.3843 35.192 83.1523 35.192C83.8403 35.192 84.4403 35.088 84.9523 34.88C85.4803 34.672 85.9603 34.36 86.3923 33.944L88.3843 36.104C87.7923 36.776 87.0483 37.296 86.1523 37.664C85.2563 38.016 84.2243 38.192 83.0563 38.192Z" fill="#252B42"/>
</svg>
